<svg width="21" height="20" viewBox="0 0 21 20" fill="none" xmlns="../../../../www.w3.org/2000/svg.html">
<path d="M10.333 20C15.8559 20 20.333 15.5228 20.333 10C20.333 4.47715 15.8559 0 10.333 0C4.81016 0 0.333008 4.47715 0.333008 10C0.333008 15.5228 4.81016 20 10.333 20Z" fill="#EB4D4D"/>
<path d="M14.8955 14.5625C14.5205 14.9374 13.8954 14.9374 13.5205 14.5625L10.333 11.375L7.1455 14.5625C6.77051 14.9374 6.14548 14.9374 5.7705 14.5625C5.39551 14.1875 5.39551 13.5624 5.7705 13.1874L8.95798 9.99997L5.7705 6.81249C5.39551 6.43751 5.39551 5.81247 5.7705 5.43749C6.14548 5.0625 6.77051 5.0625 7.1455 5.43749L10.333 8.62497L13.5205 5.43749C13.8954 5.0625 14.5205 5.0625 14.8955 5.43749C15.2704 5.81247 15.2704 6.43751 14.8955 6.81249L11.708 9.99997L14.8955 13.1874C15.2704 13.5624 15.2704 14.1874 14.8955 14.5625Z" fill="white"/>
</svg>
